<svg xmlns="http://www.w3.org/2000/svg" viewBox="0 0 395.52 469.93815790827557" height="247.2" width="208.05406489056298"><g transform="matrix(1,0,0,1,0,371.16630227575644)"><svg viewBox="0 0 395.52 98.77185563251913" height="98.77185563251913" width="395.52"><g id="textblocktransform"><svg viewBox="0 0 395.52 98.77185563251913" height="98.77185563251913" width="395.52" id="textblock"><g><svg viewBox="0 0 395.52 98.77185563251913" height="98.77185563251913" width="395.52"><g transform="matrix(1,0,0,1,0,0)"><svg width="395.52" viewBox="4.4 -34.25 137.14 34.25" height="98.77185563251913" data-palette-color="#ffffff"><path d="M15.25-18.15Q22.55-17 22.55-9.45L22.55-9.45Q22.55-4.85 19.73-2.43 16.9 0 11.85 0L11.85 0 4.4 0 4.4-34.25 10.5-34.25Q15.7-34.25 18.48-32.02 21.25-29.8 21.25-25.7L21.25-25.7Q21.25-19.65 15.25-18.15L15.25-18.15ZM10.8-31.85L7.25-31.85 7.25-19.2 11.65-19.2Q14.9-19.2 16.57-20.88 18.25-22.55 18.25-25.5L18.25-25.5Q18.25-31.85 10.8-31.85L10.8-31.85ZM11.9-2.45Q19.55-2.45 19.55-9.45L19.55-9.45Q19.55-13.25 17.65-15.05 15.75-16.85 11.95-16.85L11.95-16.85 7.25-16.85 7.25-2.45 11.9-2.45ZM47.65 0L44.7 0 42.3-9.4 30.7-9.4 28.3 0 25.45 0 34.75-34.25 38.35-34.25 47.65 0ZM36.5-31.85L31.35-11.8 41.65-11.8 36.5-31.85ZM71.59 0L68.4 0 61.2-15.45 59.6-15.4 55.75-15.4 55.75 0 52.9 0 52.9-34.25 59-34.25Q70.15-34.25 70.15-24.95L70.15-24.95Q70.15-21.6 68.55-19.3 66.95-17 63.95-16L63.95-16 71.59 0ZM59.25-17.8Q63.3-17.8 65.17-19.53 67.05-21.25 67.05-24.95L67.05-24.95Q67.05-28.45 65.2-30.15 63.35-31.85 58.85-31.85L58.85-31.85 55.75-31.85 55.75-17.8 59.25-17.8ZM88.09-18.15Q95.39-17 95.39-9.45L95.39-9.45Q95.39-4.85 92.57-2.43 89.74 0 84.69 0L84.69 0 77.24 0 77.24-34.25 83.34-34.25Q88.54-34.25 91.32-32.02 94.09-29.8 94.09-25.7L94.09-25.7Q94.09-19.65 88.09-18.15L88.09-18.15ZM83.64-31.85L80.09-31.85 80.09-19.2 84.49-19.2Q87.74-19.2 89.42-20.88 91.09-22.55 91.09-25.5L91.09-25.5Q91.09-31.85 83.64-31.85L83.64-31.85ZM84.74-2.45Q92.39-2.45 92.39-9.45L92.39-9.45Q92.39-13.25 90.49-15.05 88.59-16.85 84.79-16.85L84.79-16.85 80.09-16.85 80.09-2.45 84.74-2.45ZM101.84-34.25L116.39-34.25 116.09-31.8 104.69-31.8 104.69-18.95 114.54-18.95 114.54-16.55 104.69-16.55 104.69-2.45 116.64-2.45 116.64 0 101.84 0 101.84-34.25ZM141.54 0L138.34 0 131.14-15.45 129.54-15.4 125.69-15.4 125.69 0 122.84 0 122.84-34.25 128.94-34.25Q140.09-34.25 140.09-24.95L140.09-24.95Q140.09-21.6 138.49-19.3 136.89-17 133.89-16L133.89-16 141.54 0ZM129.19-17.8Q133.24-17.8 135.11-19.53 136.99-21.25 136.99-24.95L136.99-24.95Q136.99-28.45 135.14-30.15 133.29-31.85 128.79-31.85L128.79-31.85 125.69-31.85 125.69-17.8 129.19-17.8Z" opacity="1" transform="matrix(1,0,0,1,0,0)" fill="#ffffff" class="wordmark-text-0" data-fill-palette-color="primary" id="text-0"/></svg></g></svg></g></svg></g></svg></g><g transform="matrix(1,0,0,1,41.323929600000014,0)"><svg viewBox="0 0 312.87214079999995 312.87214079999995" height="312.87214079999995" width="312.87214079999995"><g><svg viewBox="0 0 312.87214079999995 312.87214079999995" height="312.87214079999995" width="312.87214079999995"><g transform="matrix(1,0,0,1,88.503223905461,82.69139959865588)"><svg viewBox="0 0 135.86569298907796 147.4893416026882" height="147.4893416026882" width="135.86569298907796"><g><svg xmlns="http://www.w3.org/2000/svg" xmlns:xlink="http://www.w3.org/1999/xlink" version="1.1" x="0" y="0" viewBox="8.373000000000005 4.812 83.25448264960053 90.37711111111112" enable-background="new 0 0 100 100" xml:space="preserve" height="147.4893416026882" width="135.86569298907796" class="icon-cg-0" data-fill-palette-color="accent" id="cg-0"><g fill="#1efeae" data-fill-palette-color="accent"><polygon points="67.79,5.359 64.461,6.954 46.023,35.342 53.552,46.707  " fill="#1efeae" data-fill-palette-color="accent"/><path d="M33.898 55.347l-6.705 9.906c-1.184-0.3-2.417-0.476-3.692-0.476-8.343 0-15.128 6.787-15.128 15.129s6.786 15.128 15.128 15.128c8.34 0 15.127-6.786 15.127-15.128 0-3.908-1.502-7.464-3.944-10.152l6.52-7.451L33.898 55.347zM23.501 88.464c-4.726 0-8.558-3.832-8.558-8.558s3.833-8.558 8.558-8.558 8.556 3.832 8.556 8.558S28.227 88.464 23.501 88.464" fill="#1efeae" data-fill-palette-color="accent"/><path d="M79.976 92.571c-0.93-0.483-2.761-3.157-2.761-3.157 2.107-2.6 3.377-5.907 3.377-9.508 0-8.342-6.786-15.129-15.129-15.129-1.55 0-3.044 0.235-4.453 0.671L23.365 7.211l-4.04-2.399 16.156 46.822 19.276 17.596c-2.732 2.738-4.422 6.513-4.422 10.677 0 8.342 6.787 15.128 15.128 15.128 3.423 0 6.573-1.156 9.112-3.081 0 0 1.663 2.423 2.525 2.808 2.157 0.961 9.446 0 9.446 0v-1.505C86.547 93.256 81.441 93.33 79.976 92.571M43.01 51.269c-1.384 0-2.51-1.123-2.51-2.508 0-1.387 1.126-2.51 2.51-2.51 1.387 0 2.51 1.124 2.51 2.51C45.521 50.146 44.397 51.269 43.01 51.269M65.463 88.464c-4.726 0-8.557-3.832-8.557-8.558s3.831-8.558 8.557-8.558 8.557 3.832 8.557 8.558S70.188 88.464 65.463 88.464" fill="#1efeae" data-fill-palette-color="accent"/><path d="M66.792 21.012c8.103 6.285 7.984 13.172 11.228 21.251 2.623 6.532 7.772 8.334 10.556 6.643 1.986-1.206 2.151-5.403 2.151-5.403s6.117 12.845-13.535 12.486c-11.229-0.205-19.82-7.081-19.82-7.081L66.792 21.012z" fill="#1efeae" data-fill-palette-color="accent"/><path d="M54.7 14.363c-4.522-1.82-10.42-6.169-21.997 0.611l10.36 16.325L54.7 14.363z" fill="#1efeae" data-fill-palette-color="accent"/></g></svg></g></svg></g><g id="text-0"><path d="M22.374 106.192c2.458-4.708 6.256-6.197 11.393-4.467v0c3.136 1.056 5.206 2.824 6.209 5.306 1.005 2.475 0.928 5.433-0.231 8.875v0l-2.563 7.61-34.985-11.779 2.099-6.234c1.191-3.538 2.861-5.999 5.009-7.384 2.152-1.376 4.624-1.594 7.417-0.653v0c4.124 1.389 6.008 4.298 5.652 8.726zM6.847 106.021l-1.22 3.623 12.927 4.353 1.513-4.494c0.745-2.212 0.739-4.08-0.018-5.605-0.757-1.525-2.139-2.626-4.147-3.302v0c-4.328-1.457-7.346 0.351-9.055 5.425zM37.256 115.014c1.756-5.214 0.25-8.624-4.519-10.229v0c-2.588-0.871-4.712-0.866-6.371 0.016-1.66 0.882-2.925 2.617-3.796 5.204v0l-1.616 4.8 14.705 4.952z" fill="#1efeae" data-fill-palette-color="accent"/><path d="M83.143 57.363l-2.358 2.13-8.714-5.779-9.276 8.378 4.864 9.255-2.276 2.055-17.307-34.11 2.883-2.604zM51.208 39.944l10.365 19.757 8.244-7.445z" fill="#1efeae" data-fill-palette-color="accent"/><path d="M139.711 34.03l-3.336 0.879-11.745-14.131-1.653 0.498-4.01 1.056 4.227 16.048-2.975 0.784-9.403-35.697 6.361-1.676c7.746-2.04 12.47 0.169 14.171 6.628v0c0.613 2.328 0.575 4.439-0.116 6.332-0.691 1.893-1.985 3.461-3.883 4.705v0zM121.955 18.863c2.81-0.74 4.711-1.881 5.703-3.421 0.986-1.539 1.139-3.597 0.461-6.173v0c-0.641-2.433-1.76-4.068-3.358-4.906-1.593-0.846-3.954-0.857-7.082-0.033v0l-3.23 0.851 3.858 14.643z" fill="#1efeae" data-fill-palette-color="accent"/><path d="M197.212 19.592c4.911 2.022 6.738 5.669 5.48 10.942v0c-0.768 3.219-2.341 5.44-4.721 6.663-2.373 1.225-5.326 1.416-8.86 0.574v0l-7.811-1.863 8.564-35.908 6.398 1.526c3.631 0.866 6.233 2.306 7.807 4.32 1.565 2.019 2.006 4.461 1.322 7.327v0c-1.01 4.233-3.736 6.373-8.179 6.419zM195.977 4.113l-3.719-0.887-3.165 13.268 4.613 1.1c2.27 0.541 4.13 0.366 5.581-0.526 1.45-0.892 2.421-2.368 2.912-4.428v0c1.059-4.442-1.015-7.284-6.222-8.527zM189.774 35.211c5.352 1.276 8.611-0.532 9.778-5.426v0c0.633-2.656 0.436-4.771-0.593-6.343-1.029-1.573-2.871-2.676-5.527-3.31v0l-4.926-1.175-3.6 15.093z" fill="#1efeae" data-fill-palette-color="accent"/><path d="M261.214 34.406l11.824 10.31-1.974 1.773-9.261-8.076-9.104 10.44 8 6.976-1.704 1.954-8-6.975-9.985 11.451 9.703 8.461-1.737 1.992-12.022-10.483z" fill="#1efeae" data-fill-palette-color="accent"/><path d="M279.008 127.195l-1.25-3.216 12.716-13.264-0.681-1.586-1.502-3.865-15.469 6.011-1.115-2.868 34.409-13.371 2.382 6.132c2.901 7.467 1.239 12.409-4.986 14.828v0c-2.244 0.872-4.346 1.072-6.305 0.599-1.959-0.473-3.663-1.582-5.113-3.327v0zM292.074 107.842c1.052 2.708 2.4 4.468 4.044 5.28 1.641 0.806 3.702 0.726 6.185-0.239v0c2.345-0.911 3.843-2.208 4.495-3.89 0.661-1.678 0.406-4.025-0.766-7.04v0l-1.209-3.113-14.115 5.485z" fill="#1efeae" data-fill-palette-color="accent"/><path d="M32.74 209.963c0.89 5.236-1.234 8.719-6.371 10.448v0c-3.136 1.056-5.854 0.899-8.153-0.469-2.299-1.369-4.027-3.772-5.184-7.208v0l-2.562-7.61 34.985-11.78 2.099 6.234c1.191 3.538 1.347 6.508 0.467 8.912-0.875 2.395-2.709 4.063-5.501 5.004v0c-4.124 1.389-7.384 0.212-9.78-3.531zM45.209 200.708l-1.22-3.624-12.927 4.353 1.513 4.494c0.745 2.212 1.88 3.696 3.405 4.453 1.525 0.757 3.292 0.797 5.299 0.121v0c4.328-1.457 5.638-4.723 3.93-9.797zM15.554 211.939c1.756 5.214 5.017 7.018 9.785 5.413v0c2.588-0.871 4.276-2.16 5.064-3.866 0.788-1.706 0.747-3.853-0.125-6.441v0l-1.616-4.8-14.705 4.951z" fill="#1efeae" data-fill-palette-color="accent"/><path d="M64.244 283.194l-2.359-2.13 4.873-9.248-9.277-8.378-8.713 5.779-2.276-2.056 32.177-20.68 2.883 2.603zM78.338 249.662l-18.602 12.318 8.236 7.438z" fill="#1efeae" data-fill-palette-color="accent"/><path d="M132.533 312.872l-3.337-0.879-3.26-18.083-1.683-0.381-4.01-1.056-4.227 16.049-2.976-0.784 9.403-35.697 6.361 1.675c7.746 2.04 10.768 6.293 9.065 12.758v0c-0.612 2.322-1.684 4.136-3.218 5.444-1.534 1.307-3.433 2.034-5.697 2.182v0zM124.542 290.924c2.816 0.742 5.032 0.686 6.649-0.168 1.623-0.852 2.772-2.563 3.449-5.132v0c0.641-2.433 0.473-4.41-0.503-5.934-0.976-1.523-3.025-2.696-6.147-3.517v0l-3.23-0.851-3.857 14.644z" fill="#1efeae" data-fill-palette-color="accent"/><path d="M194.675 289.413c5.295-0.412 8.571 2.018 9.829 7.292v0c0.768 3.219 0.366 5.911-1.205 8.076-1.572 2.166-4.121 3.669-7.647 4.51v0l-7.812 1.864-8.564-35.908 6.398-1.526c3.631-0.866 6.604-0.752 8.918 0.341 2.306 1.089 3.801 3.066 4.485 5.932v0c1.01 4.233-0.458 7.373-4.402 9.419zM186.587 276.158l-3.719 0.887 3.165 13.268 4.612-1.1c2.27-0.541 3.851-1.537 4.743-2.988 0.892-1.45 1.092-3.206 0.6-5.266v0c-1.06-4.442-4.193-6.042-9.401-4.801zM195.087 306.709c5.352-1.276 7.444-4.361 6.277-9.255v0c-0.634-2.656-1.764-4.454-3.392-5.394-1.628-0.939-3.77-1.092-6.426-0.459v0l-4.926 1.175 3.6 15.094z" fill="#1efeae" data-fill-palette-color="accent"/><path d="M231.218 250.836l11.817-10.303 1.493 2.204-9.254 8.069 9.104 10.44 7.999-6.975 1.698 1.947-8 6.975 9.986 11.452 9.702-8.461 1.738 1.993-12.022 10.482z" fill="#1efeae" data-fill-palette-color="accent"/><path d="M305.281 202.656l-1.25 3.216-18.335 1.199-0.569 1.63-1.502 3.865 15.47 6.011-1.115 2.868-34.408-13.37 2.382-6.131c2.901-7.467 7.468-9.989 13.699-7.568v0c2.238 0.87 3.92 2.14 5.046 3.812 1.126 1.671 1.634 3.64 1.525 5.907v0zM282.572 208.12c1.055-2.715 1.249-4.923 0.582-6.625-0.664-1.708-2.234-3.044-4.71-4.006v0c-2.345-0.911-4.329-0.968-5.952-0.17-1.623 0.798-3.02 2.702-4.189 5.711v0l-1.209 3.113 14.115 5.484z" fill="#1efeae" data-fill-palette-color="accent"/><path d="M3.73 159.823c0-7.788 6.313-14.101 14.102-14.102 7.788 0 14.101 6.313 14.101 14.102 0 7.788-6.313 14.101-14.101 14.101-7.788 0-14.101-6.313-14.102-14.101z" fill="#1efeae" data-fill-palette-color="accent"/><path d="M282.472 159.823c0-7.788 6.313-14.101 14.102-14.102 7.788 0 14.101 6.313 14.101 14.102 0 7.788-6.313 14.101-14.101 14.101-7.788 0-14.101-6.313-14.102-14.101z" fill="#1efeae" data-fill-palette-color="accent"/></g><g id="text-1"/></svg></g></svg></g><g/></svg>