<svg xmlns="http://www.w3.org/2000/svg" viewBox="0 0 658.41 377.55"><defs><style>.cls-1{fill:#f09103;}.cls-2{fill:#fff;}</style></defs><g id="Layer_2" data-name="Layer 2"><g id="Слой_1" data-name="Слой 1"><path class="cls-1" d="M365.39,335.94c.25.74.56,1.49.85,2.23-4.43.44-8.89.68-13.39.68a139.29,139.29,0,0,1-59.08-13.27c.56-.59,1.14-1.16,1.69-1.76a137.11,137.11,0,0,0,57.39,12.72C357.05,336.55,361.24,336.33,365.39,335.94ZM521.12,143.43H648.33a1.15,1.15,0,0,0,0-2.3H521.62A4.65,4.65,0,0,1,521.12,143.43Zm-297.39-2.31H2.31a1.15,1.15,0,1,0,0,2.3H224.48a1.15,1.15,0,0,0,1.06-.69,138.28,138.28,0,0,1,33-46.65c-.42-.67-.83-1.32-1.23-2A140.79,140.79,0,0,0,223.73,141.12Zm-2.85,99.47a1.14,1.14,0,0,0-1.1-.8H2.31a1.15,1.15,0,1,0,0,2.3H218.94a138.32,138.32,0,0,0,19.26,37.54l1.39-2A136.42,136.42,0,0,1,220.88,240.59Zm427.45,1.51a1.15,1.15,0,0,0,0-2.3H493.13c.95.72,1.9,1.5,2.83,2.31H648.33Zm-295.49-183A139.3,139.3,0,0,1,383,62.43l-1.53-2.67a140.91,140.91,0,0,0-90.84,11.5L292.27,73A138.57,138.57,0,0,1,352.84,59.12Zm125.34,198a138.27,138.27,0,0,1-18.42,28.69c.28.83.58,1.66.9,2.5a139.54,139.54,0,0,0,19.44-29.87A21.18,21.18,0,0,0,478.18,257.14ZM389.12,334a142.5,142.5,0,0,0,32.82-13.56c-.67-.51-1.35-1-2-1.49a140,140,0,0,1-31.76,12.91C388.44,332.53,388.76,333.24,389.12,334Z"/><path class="cls-1" d="M432.63,301.13c2.19-1.69,4.33-3.44,6.4-5.26.41,1.16.88,2.35,1.38,3.53a6.24,6.24,0,0,0-2.49,1.22l-.24.21a4.61,4.61,0,0,0-1.52,2.3l-.08.3c0,.1-.08.18-.11.29C434.85,302.79,433.74,301.94,432.63,301.13Zm215.7-69.4H480.77a2.26,2.26,0,0,0-1.58.67,40.6,40.6,0,0,1,8.77,3.93H648.33a2.3,2.3,0,1,0,0-4.6ZM470.68,254.22a130.61,130.61,0,0,1-13.15,21.67,47.72,47.72,0,0,0,1.09,6.08,133.94,133.94,0,0,0,16.52-26.45A17,17,0,0,0,470.68,254.22Zm50.18-102.74H648.33a2.31,2.31,0,1,0,0-4.61H519.62l.86,1.69A4.64,4.64,0,0,1,520.86,151.48Zm-293.31-4.6H2.31a2.31,2.31,0,1,0,0,4.61H229.1a2.28,2.28,0,0,0,2.14-1.46A131.2,131.2,0,0,1,262.86,103c-.84-1.33-1.69-2.66-2.51-4A135.53,135.53,0,0,0,227.55,146.88ZM294.6,75.61l3.21,3.6a131.84,131.84,0,0,1,90.76-7.11l-3.22-5.61a136.64,136.64,0,0,0-90.75,9.12Zm-67.47,157.8a2.31,2.31,0,0,0-2.22-1.67H2.31a2.31,2.31,0,1,0,0,4.61H223.18a134.26,134.26,0,0,0,18.49,38.44c1-1.3,1.94-2.59,2.93-3.87A129.93,129.93,0,0,1,227.13,233.41Zm137.24,99.18a41.66,41.66,0,0,1-1-4.53c-3.5.28-7,.44-10.56.44a129.89,129.89,0,0,1-51.94-10.86c-1,1.23-2.1,2.41-3.16,3.61a134.21,134.21,0,0,0,55.1,11.86Q358.65,333.1,364.37,332.59ZM387,328.65a135.59,135.59,0,0,0,29.79-11.76,47.6,47.6,0,0,0-5-2.58,130.4,130.4,0,0,1-25.64,9.81A22,22,0,0,0,387,328.65Z"/><path class="cls-2" d="M353.23,229.23c11.86,31.8,16.68,62.46,14.35,91.35-1.13,18.32,16.45,42.9,37.63,52.61,16.59,7.61,32.49,5.2,44.84-6.84.23-.25.45-.5.67-.77,8.55-10.29,7.07-26.51-3.16-42.19a8.81,8.81,0,0,1,6.22-2.44h.36l.27-.23a1.25,1.25,0,0,0,.23-.23,2.17,2.17,0,0,0,.38-1.86c-.63-3.83-8.37-13.28-12-14.65a2,2,0,0,0-2.17.2l-.25.2-.08.31a11,11,0,0,1-3.84,5.74c-11.55-10.75-21.37-14.38-39.2-15-5.64-.2-10.87-4.21-13-10-6.14-16.38-10.1-38.74-11.46-64.66.87-2.21,1.64-4.33,2.41-6.43,1-.09,2-.16,3-.27,24.59,8.43,45,18.39,59.1,28.81a15.2,15.2,0,0,1,5.81,15.79c-4.74,19.59-3.46,31.33,5.13,46.57,5.75,9.38,12,16.13,19.12,20.59a60.44,60.44,0,0,1,18.19,18.4c2.52,3.71,4.91,7.2,9.1,10.55,17.74,14.18,31.43,11.46,32.81,11.13a5.55,5.55,0,0,0,1.77-.5,4.8,4.8,0,0,0,2.61-4.66,5.17,5.17,0,0,0-5.42-4.91c-.16,0-16.22-.29-20.69-11.88a29.4,29.4,0,0,1-1.28-14.66,24.83,24.83,0,0,1,4.75-11.59A35.22,35.22,0,0,0,515,306.59c3.87-12.78,1.1-28.63-7.62-43.49-8.26-14.09-20.35-24.37-31.58-26.84-12.4-2.48-25.57-5.63-37.76-11.9-10.91-5.6-13.16-12.11-14.65-16.42-.74-2.12-1.31-3.8-2.7-4.71-1.57-1-4-.59-7.11-.06-4.88.85-10.95,1.91-16.1-1.76-5.38-3.82-10.14-7.4-14.54-10.91a180.17,180.17,0,0,1,19.35-18c3.47-3,4.75-6.88,3.58-10.38a9.91,9.91,0,0,0,7.9-4.95,3.43,3.43,0,0,0,.36-.49l-.09,0,.07-.13a6.41,6.41,0,0,0-.14-5.6,24.74,24.74,0,0,0,15.9-16.1L439,150.61l.87-.1c32.6-3.77,56.1-2.32,71.83,4.43l.93.4,3.77-4.7-2.7-5.35,3.4-4-.5-.83L436.82,8.91a8.06,8.06,0,0,0-3-2.9c-17.5-9.81-39.36-7.46-55.81,5.93a37.38,37.38,0,0,0-11.34,2.25l-.32.13L363.1,18.4,406.51,94c.1,5.44-.12,9-3.82,9.74-13.36,2.66-19.08,13-20.13,21.81a6,6,0,0,0-5.14,1,10.53,10.53,0,0,0-4.09,9.31c-3.71-.44-7.27,1.62-9.45,5.67-2.34,4.77-4.91,9.36-7.63,13.83-47-58.14-89.2-105-128.42-142.42l0,0a2.51,2.51,0,0,0-3.88,3.16l.16.26-1.62-1.79a2.51,2.51,0,0,0-4.08,2.91c26.86,51,63,108.25,110,174.3-11.15,12.22-23.13,23.6-35,34.81-33.33,31.61-64.83,61.47-72,104.78-.56,7.82,4.25,12.77,8.5,16.22s10.15,7,17.56,4.84c40.87-16.35,63.25-53.53,86.94-92.88C340.53,249.42,346.68,239.23,353.23,229.23Zm-28.14,34a397.56,397.56,0,0,1-27.61,38.9,195.84,195.84,0,0,1-35,34,236.09,236.09,0,0,0,32.15-35.83c9.47-12.7,18-25.9,26.49-39.2S338,234.34,347.31,221.2c.58-.82,1.16-1.63,1.76-2.45.5,1.2,1,2.42,1.5,3.63-.11.18-.23.36-.35.54C341.66,236.37,333.6,249.91,325.09,263.24ZM332,196.83l2.36,3.28c-1.15,1.35-2.29,2.7-3.46,4-14.12,16-29.31,30.47-44,45.26s-29,29.93-41.07,47.12l-2.27,3.22-1.14,1.61c-.37.55-.69,1.12-1,1.68l-4.12,6.75a71.93,71.93,0,0,0-3.89,6.89,45.44,45.44,0,0,0-2.93,7.25c-1.45,4.93-1.76,10.47.88,15.11a15.9,15.9,0,0,0,5.36,5.79,13.06,13.06,0,0,0,3.74,1.54,11.57,11.57,0,0,0,4.11.05,11.46,11.46,0,0,1-4.13.3,12.81,12.81,0,0,1-4-1.26,16.52,16.52,0,0,1-6.16-5.61,16.92,16.92,0,0,1-2.82-7.94,26.93,26.93,0,0,1,.53-8.36,46.3,46.3,0,0,1,2.56-7.86A70,70,0,0,1,234,308.4c1.28-2.37,2.55-4.72,3.83-7.07l1-1.78,1.07-1.69,2.16-3.37c11.47-18.06,25.66-33.91,40.52-48.76s30.32-29.07,45.06-44.27C329.09,199.93,330.55,198.38,332,196.83ZM371,178l-13.26-14.58c-1.95-2.32-3.93-4.61-5.83-7l-4.1-5.06-2.81-3.5a10.29,10.29,0,0,0-1.35-1.53,9.29,9.29,0,0,0,1,1.67c.64,1,1.53,2.26,2.42,3.53l.37.53-38-41.84Q297,94.64,284.16,79.33s-2.46-2.89-6.12-7.22-8.65-10-13.67-15.71c-2.5-2.84-5.06-5.63-7.43-8.26s-4.66-5-6.58-7.14l-4.74-5-1.35-1.37a4,4,0,0,0-.51-.46s.12.2.39.53l1.19,1.4,4.32,4.91,6.09,7,6.93,8c9.39,11,18.54,22.14,18.54,22.14q4,4.84,7.91,9.73L233.57,26.79,226.28,15C270,56.8,317.41,110.22,371,178ZM367,150.5c-1.73,3.82-3.65,7.53-5.66,11.19-.22-.27-.44-.57-.67-.84C362.84,157.48,365,154.05,367,150.5Zm4.09.17a56.54,56.54,0,0,0,8.75,9.75,54,54,0,0,0,10.8,7.56A24.54,24.54,0,0,1,371.06,150.67Zm8,40,.14.14c5,4.08,10.51,8.25,16.8,12.71,6,4.29,13,3.08,18,2.2,2.24-.39,4.55-.79,5.27-.32s1.11,1.74,1.68,3.4c1.53,4.4,4.08,11.79,15.92,17.86,12.47,6.4,25.84,9.62,38.4,12.13,10.52,2.31,22,12.13,29.88,25.62,8.35,14.25,11.05,29.36,7.38,41.45a32.46,32.46,0,0,1-5.24,10.3A27.41,27.41,0,0,0,502.07,329a31.82,31.82,0,0,0,1.43,15.95c.05.13.12.24.17.37a2.34,2.34,0,0,0-.15-.27,26.76,26.76,0,0,1-2.72-11.76,27.09,27.09,0,0,1,2.87-12.4,24,24,0,0,0,19,38.63,27.16,27.16,0,0,1-11.47-5.23c-.44-.34-.84-.73-1.27-1.1,7,5.09,16.13,5.26,16.68,5.27a2.62,2.62,0,0,1,2.85,2.49,2.24,2.24,0,0,1-2.19,2.47l-.18,0c-.12,0-13.42,3.16-30.65-10.62-3.9-3.11-6.06-6.3-8.58-10A62.61,62.61,0,0,0,469,323.69c-6.79-4.27-12.79-10.74-18.32-19.74-8.18-14.53-9.4-25.8-4.84-44.64A17.76,17.76,0,0,0,439,240.83c-14.34-10.61-35.11-20.73-60.07-29.26l-.26-.09-.28,0a169.83,169.83,0,0,1-30.66.64,3.61,3.61,0,0,1-2.62-1.5C291,136.1,250.29,72.6,220.79,16.6ZM397.36,298c11.62.42,19.54,2.06,26.85,6.22-.34-.17-.68-.36-1-.52a45.76,45.76,0,0,0-23.65-4.26,49.43,49.43,0,0,1,22.69,6A58.35,58.35,0,0,1,439.64,320a69.11,69.11,0,0,1,6.47,9.38,53.13,53.13,0,0,1,4.7,10.43,32.24,32.24,0,0,1,1.58,11.41,24.31,24.31,0,0,1-3.31,11.38,23.75,23.75,0,0,0,4.45-11.17c.11-.79.16-1.59.2-2.37a22.38,22.38,0,0,1-5.55,15.57c-11.47,11.19-26.35,13.42-41.92,6.29-20.32-9.32-37.2-32.74-36.13-50.1,2.68-33.21-4-68.74-19.78-105.59l0-.09-.12-.2c4.58.28,9.45.32,14.68.12-.12.59-.24,1.17-.39,1.75,0,0-.13.52-.25,1s-.23,1.06-.11,1.1.44-.35.74-.77.54-.89.54-.89c.4-.74.76-1.51,1.09-2.29l.87,0c-.22.69-.46,1.37-.66,2.06,0,0-.24.87-.43,1.76a5,5,0,0,0-.24,1.82c.12,0,.51-.74.88-1.52l.72-1.56c.39-.89.85-1.76,1.25-2.63l1-.05-1,3.22-.57,2-.07.24v.53l0,.52,0,1c.12,2.73.2,5.46.54,8.23s.71,5.41,1.09,8.11c1.54,10.81,3.44,21.57,5.9,32.21,0,0,.44,1.79,1.09,4.5s1.53,6.3,2.81,9.82a27.92,27.92,0,0,0,2.34,5,19.56,19.56,0,0,0,2.92,3.78,15.78,15.78,0,0,0,2.64,2.11,9.11,9.11,0,0,0,.83.46.94.94,0,0,0,.31.13s-.4-.28-1.09-.77a17,17,0,0,1-2.58-2.34,21,21,0,0,1-2.79-4,30.28,30.28,0,0,1-2.15-5.21c-1.15-3.67-2-7.48-2.6-10.3s-1-4.73-1-4.73c-2.18-10.42-3.84-21-5.16-31.5-.33-2.64-.64-5.29-.92-7.92s-.29-5.26-.35-7.92l0-1v-.41l.09-.29.58-1.91,1.16-3.65.65-.05c-.67,1.82-1.32,3.62-2.07,5.52l-.11.26v.28c1.35,26.3,5.38,49,11.64,65.71C384.58,293.17,390.61,297.75,397.36,298Zm54.77,21.09a18.06,18.06,0,0,0-2.72-2.39,8.81,8.81,0,0,0-.81-.49c-.42-.22-.86-.39-.93-.29s.19.46.45.8l.53.67a17.38,17.38,0,0,1,1.47,2.15c-.17.05-.31.11-.47.17-.35-.32-.7-.67-1.07-.95a2.83,2.83,0,0,0-.48-.29c-.25-.14-.53-.24-.62-.15s0,.35.09.6l.19.48a9.71,9.71,0,0,1,.41,1l-.34.22a10.88,10.88,0,0,0-.86-.93s-.21-.15-.44-.28-.49-.2-.58-.13,0,.34,0,.56l.14.43a7.1,7.1,0,0,1,.33,1.36l-.06.06a75.92,75.92,0,0,0-6.51-8.15l-.91-.9,1,.37s1,.35,1.15.15-.54-1-.54-1l-.57-.62c.37.18.76.33,1.12.54l.59.34c.31.15.64.31.72.23s0-.41-.21-.71-.37-.58-.37-.58a17.06,17.06,0,0,0-1.25-1.31,15.59,15.59,0,0,1,2,1.12l.76.49c.38.24.78.48.87.41s-.1-.5-.35-.88-.52-.73-.52-.73c-.31-.36-.65-.7-1-1.05a28.08,28.08,0,0,1,3.4,2.57l1.19,1.07c.59.54,1.18,1.11,1.28,1s-.27-.77-.7-1.43-.92-1.28-.92-1.28a30.8,30.8,0,0,0-4.68-4.59c.12-.3.27-.58.38-.89.9.34,3.23,2.08,6.26,5.79s4.26,6.25,4.45,7.23C452.69,319,452.42,319,452.13,319.08Zm-219.57,7.81a235.34,235.34,0,0,1,31.76-51.12,240.66,240.66,0,0,1,44-41.69C294,249.2,281.22,264,268.83,279.17S244.52,309.89,232.56,326.89ZM513.69,141a41.36,41.36,0,0,0-23.22-11.34l-1.89-.18c-.57-.08-1.24-.07-1.95-.1a21,21,0,0,0-2.24,0,20.29,20.29,0,0,0-6,.87c0,.17,3.15-.17,6.27,0,.77,0,1.54.11,2.27.19s1.4.16,2,.26l1.38.23.51.11A39.45,39.45,0,0,1,504,136.35,55,55,0,0,0,492.5,133a48.71,48.71,0,0,0-5.1-.57,19.4,19.4,0,0,0-5.12.14c0,.17,2.66.34,5.26.78,1.3.2,2.59.46,3.56.68s1.59.38,1.59.38a52.81,52.81,0,0,1,12.41,4.79c-11.4-5.3-27.76-6.44-48.88-3.43,5.22-4.66,15.34-7.55,26.7-7.37C493.88,128.55,507.5,132,513.69,141ZM380.86,13.13q23.61,37.32,46.4,75.16s5.18,8.61,10.38,17.23c2.59,4.31,5.19,8.61,7.14,11.84,1,1.6,1.81,2.94,2.38,3.88a9.46,9.46,0,0,0,1,1.44,11.35,11.35,0,0,0-.8-1.63c-.56-1-1.35-2.46-2.29-4.19-1.94-3.44-4.52-8-7.11-12.63C432.67,95.1,427.42,86,427.42,86Q405.64,48.52,383,11.56c.92-.65,1.86-1.26,2.81-1.83Q406,41.8,425.55,74.31l9,15,6.22,10.27c.86,1.39,1.57,2.56,2.08,3.37a7.08,7.08,0,0,0,.86,1.23,9.69,9.69,0,0,0-.68-1.42l-2-3.65c-1.67-3-3.9-7-6.14-11l-9.07-15.9Q407.31,40.12,388.11,8.43q1.49-.78,3-1.47l32.78,54s3.8,6.21,7.62,12.41c1.92,3.1,3.85,6.19,5.29,8.51.74,1.14,1.35,2.11,1.78,2.78a6.13,6.13,0,0,0,.74,1,6.11,6.11,0,0,0-.56-1.19l-1.67-3c-1.41-2.49-3.29-5.81-5.16-9.13-3.81-6.61-7.6-13.23-7.6-13.23L393.58,6c1.07-.42,2.15-.79,3.23-1.13l25.84,42.72,6,9.85c1.52,2.45,3.05,4.9,4.2,6.74a26.69,26.69,0,0,0,2,3,24.74,24.74,0,0,0-1.71-3.38l-4-7.28c-3-5.27-5.94-10.54-5.94-10.54L399.41,4.08c1.16-.29,2.33-.52,3.5-.73l18.63,31s2.18,3.59,4.38,7.18l3.08,4.9a12.42,12.42,0,0,0,1.52,2.16,14.93,14.93,0,0,0-1.17-2.5l-2.84-5.35L422.29,33,405.69,3c1.25-.14,2.51-.22,3.76-.26l11.12,18.75s5.28,8.79,5.55,8.65-4.62-9.72-4.62-9.72L412.39,2.72a44.37,44.37,0,0,1,20.15,5.63,5.46,5.46,0,0,1,2,2l74.15,122.28-.58-.37q-10.47-15.72-20.15-32s-2.2-3.7-4.42-7.41c-1.11-1.85-2.22-3.71-3.06-5.1a13,13,0,0,0-1.5-2.26,16.07,16.07,0,0,0,1.14,2.6c.75,1.53,1.77,3.55,2.82,5.56,2.1,4,4.27,8,4.27,8q7.86,14.26,16.33,28.19c-.2-.09-.43-.17-.63-.25l-8.75-13.27s-4.1-6.16-4.38-6,3.43,7,3.43,7l6,10.9-.28-.08-2.41-3.77s-1.22-1.82-1.51-1.69.34,2.33.34,2.33l.7,2.34a59.12,59.12,0,0,0-13-1.59c-13.05-.2-24.7,3.57-30,9.54L380.28,13.58C380.47,13.43,380.67,13.29,380.86,13.13Zm-14.57,5.54.73-.91,50.86,85.46s23.51,39.42,23.78,39.26-23.75-41.82-23.75-41.82l-48.79-84.5a37.08,37.08,0,0,1,8.68-1.51l74.36,124.42.89-.15c27.5-4.43,47-2,58,7.06l.69,1.36a69.13,69.13,0,0,0-19.61-6,113.48,113.48,0,0,0-24.55-1.15l-3.47.26c-2.07.23-4.85.54-7.58,1a61.88,61.88,0,0,0-7.43,1.78,25,25,0,0,0-2.37.88,3,3,0,0,0-.86.42c0,.09,1.42-.36,3.51-.88a72.29,72.29,0,0,1,7.8-1.38c1.43-.19,2.86-.36,4.22-.45s2.59-.23,3.68-.25l2.61-.11c.63,0,1,0,1,0a115.16,115.16,0,0,1,23.61,1.92,65.09,65.09,0,0,1,20.53,7.48l-1,1.27c-16-6.55-39.38-8-71.38-4.33L428,126.24a.66.66,0,0,1,0-.14h-.09Zm36.88,87.71c4.36-.86,5.57-4.21,5.88-7.85l.47.82-.18.08c1,1.95,0,4.7-1.78,6.55s-4.45,3-7.09,4.21a22.18,22.18,0,0,0-7.46,5,19.82,19.82,0,0,0-4.55,7.76,19.5,19.5,0,0,0-.58,2.49,19,19,0,0,0-.05,5.56,18.28,18.28,0,0,0,1.54,5.3,7.19,7.19,0,0,0,1.31,2.13c.07-.05-.4-1-.91-2.42a20.54,20.54,0,0,1-1.08-5.46,19.06,19.06,0,0,1,.51-5.49,17.58,17.58,0,0,1,.76-2.37,18.56,18.56,0,0,1,4.62-6.71,17.43,17.43,0,0,1,3.28-2.39,32.43,32.43,0,0,1,3.76-1.75c2.6-1.1,5.46-2.1,7.75-4.41a10.63,10.63,0,0,0,2.51-4l.25.42a4.16,4.16,0,0,1-.44,2.46,7.84,7.84,0,0,1-2,2.35,25.39,25.39,0,0,1-5.95,3.43,36.57,36.57,0,0,0-6.54,3.37,15.67,15.67,0,0,0-4.8,5.72,14.71,14.71,0,0,0-.81,1.94,15.9,15.9,0,0,0-.88,4.53,14.74,14.74,0,0,0,.5,4.53,5.54,5.54,0,0,0,.79,1.91,18.17,18.17,0,0,0-.35-2.1,16.17,16.17,0,0,1,0-4.57,16.66,16.66,0,0,1,1.25-4.35,16.19,16.19,0,0,1,1-1.8,13.76,13.76,0,0,1,4.66-4.69,41.74,41.74,0,0,1,6.28-2.79,25.47,25.47,0,0,0,6.46-3.43,9.77,9.77,0,0,0,2.67-3,1.28,1.28,0,0,0,.11-.24l11.28,19.64a21.52,21.52,0,0,1-3.66,10.47,21.14,21.14,0,0,1-9.45,7.62,24.31,24.31,0,0,1-5.44,1.5c-2.82.47-5.71.14-5.73.31a15.26,15.26,0,0,0,6.11.55,22.42,22.42,0,0,0,4.2-.74c1.13-.31,1.86-.6,1.86-.6a22.42,22.42,0,0,0,10.23-7.72,23.76,23.76,0,0,0,3.85-8l.66,1.16c-2.25,13-14.12,16.82-16.5,17.46-4.24,1.12-11.49.59-18-4.61l-.12-.09C386.9,139,384.82,132,385,127.64,385.36,119.43,390.33,108.93,403.17,106.38ZM381,128.26h0a0,0,0,0,1,0,0Zm-2.19.54a1.62,1.62,0,0,0,0,.22l-.2-.07Zm-2.57,3.93a21.17,21.17,0,0,0,.8,2.84,31.27,31.27,0,0,0,3.06,6.32,27.17,27.17,0,0,0,1.86,2.56,8.32,8.32,0,0,0,2.27,2.2,20.65,20.65,0,0,0-1.61-2.83c-.82-1.38-1.5-2.83-1.5-2.83a31.31,31.31,0,0,1-2.21-6.14c-.52-2.08-.78-4.22-.07-5.8.05.59.2,1,.28,1.54a30.15,30.15,0,0,0,5,11.2,26.32,26.32,0,0,0,2.38,2.82,10.58,10.58,0,0,0,2.86,2.3,33.51,33.51,0,0,0-2.28-3,35.55,35.55,0,0,1-2.05-3.12,29.72,29.72,0,0,1-2.94-7,29.35,29.35,0,0,1-.73-3.69,7.74,7.74,0,0,1-.1-1.6c0-.05,0-.07,0-.07h0l-.21-.1a.52.52,0,0,1-.07-.21.33.33,0,0,1,0-.1,3.19,3.19,0,0,1,1.32.32c.05,5,2.49,12.41,9.36,17.94l.11.1a24.25,24.25,0,0,0,19.49,5.29,3.49,3.49,0,0,1,.68,1.61h0a.17.17,0,0,1,0,.08v0a1,1,0,0,1-.45.6,5.07,5.07,0,0,1-1.67.63,17.33,17.33,0,0,1-4.08.5s-.94,0-1.89,0-1.93-.15-2,0,.9.61,1.91.91a14.62,14.62,0,0,0,2.06.45,18.47,18.47,0,0,0,4.4.11l.42,0a7.08,7.08,0,0,1-2.84.75,22.07,22.07,0,0,1-5.56-.2s-1.26-.19-2.51-.5a11.52,11.52,0,0,0-2.57-.57,7,7,0,0,0,2.39,1.47,19.57,19.57,0,0,0,2.64,1,23.76,23.76,0,0,0,4.77.79,9.11,9.11,0,0,1-3.15.28c-.15,0-8.24-.37-16.9-7.34s-10.76-14.78-10.78-14.85A8.27,8.27,0,0,1,376.24,132.73Zm-10,10c1.42-2.64,4.17-5,7.65-4,.74,2.23,3.55,9.15,11.47,15.51s15.24,7.6,17.6,7.85c1.69,3.2,0,6.39-2.33,8.38a182.87,182.87,0,0,0-18.88,17.5,6.27,6.27,0,0,0-.65-1.26,185.42,185.42,0,0,1,18.7-17.28c.81-.7,3.32-3.18,2.26-6.12a39.45,39.45,0,0,1-29.17-23.44,4.76,4.76,0,0,0-4.12,1.66,51.54,51.54,0,0,0,13,16.15,50.88,50.88,0,0,0,18.57,10,36,36,0,0,1-31.58-26.09,9,9,0,0,0-1.32,1.82c-2.6,5.28-5.47,10.35-8.51,15.26l-.88-1.09C360.92,152.78,363.69,147.86,366.21,142.74Zm-34,115.41c-23.46,39-45.62,75.76-85.55,91.74-6.08,1.79-11-1.22-15-4.41s-8-7.39-7.52-13.83c7-42.3,38.17-71.87,71.17-103.15C307,217.39,318.87,206.1,330,194l.79,1.11c-11.06,12.06-22.91,23.29-34.59,34.36C263.33,260.6,232.31,290,225.39,331.87c-.4,5.71,3.33,9.58,7,12.59s8.31,5.8,13.81,4.18c39.39-15.77,61.44-52.39,84.78-91.15,6.59-11,13.26-22,20.43-32.81.2.51.39,1,.58,1.53C345.1,236.72,338.59,247.49,332.18,258.15ZM383,310.6l-.07.07c-7.38,8.89-4.15,24.25,6.82,37-.42-.45-.87-.88-1.27-1.36A57.34,57.34,0,0,1,377.77,328a51.06,51.06,0,0,0,9.17,19.5,54.24,54.24,0,0,0,7.27,7.87c1.38,1.13,2.7,2.33,4.18,3.33.73.51,1.44,1.05,2.19,1.53l2.29,1.38a25.28,25.28,0,0,0,2.34,1.29c.8.4,1.59.82,2.39,1.2l2.48,1c.41.16.82.35,1.24.49l1.27.42c.86.27,1.71.56,2.56.81l2.62.62c.44.1.87.22,1.31.29l1.34.21,2.66.39a26.1,26.1,0,0,0,10.85-.78,13.1,13.1,0,0,0,8.16-6.95,12.93,12.93,0,0,1-8.39,5.81,26.29,26.29,0,0,1-10.23,0l-.63-.13c8.07.78,14.75-1.4,18.85-6.29l.07-.08c4.28-5.14,5.2-12.55,2.57-20.84-2.57-8.13-8.26-16.2-16-22.72s-16.69-10.75-25.14-11.89C394.53,303.24,387.37,305.44,383,310.6ZM402.85,307c8,1.08,16.43,5.09,23.82,11.3s12.8,13.87,15.23,21.54c2.34,7.43,1.6,14-2.09,18.43l-.06.07c-3.75,4.45-10.09,6.33-17.84,5.28-8-1.08-16.44-5.09-23.83-11.31C383,339.62,377.15,321.72,385,312.33l.05-.07C388.75,307.79,395.09,305.92,402.85,307Zm10.35-4.11a55.32,55.32,0,0,1,36.94,36.6,73.61,73.61,0,0,0-36.94-36.6Zm12.82,67A47.38,47.38,0,0,1,380.67,340,57.59,57.59,0,0,0,426,369.85Zm-57-98.17c-.45-1.81-1.05-4.22-1.66-6.64-1.22-4.83-2.57-9.61-2.57-9.61a320.64,320.64,0,0,0-13.54-38.66l1.91-.78A325.13,325.13,0,0,1,366.05,256s1.16,4.62,2.13,9.28c.5,2.32.95,4.66,1.26,6.42a25.23,25.23,0,0,1,.43,2.95,3,3,0,0,1-.27-.82C369.47,273.35,369.28,272.59,369.06,271.68ZM462,248.39c-6.14,2.75-10.22,9-11.47,17.69a45.18,45.18,0,0,0,.75,15.86,68.44,68.44,0,0,1-2.3-17.25,56.7,56.7,0,0,0,7.38,36.21,48.46,48.46,0,0,0,12.28,14,31,31,0,0,0,8.36,4.51,22.62,22.62,0,0,0,9.44,1.23c-6.37-.31-12-3.32-16.47-7.21-.78-.66-1.5-1.38-2.22-2.1,8.23,7.45,17.84,10.47,25.61,7l.49-.22c12.06-5.9,15-25.86,6.45-44.9C491.64,254,474.46,242.81,462,248.39Zm35.95,25.91c8,17.77,5.6,36.24-5.22,41.53-.14.07-.27.14-.42.2-11.18,5-26.83-5.56-34.89-23.56-4-8.81-5.49-18-4.34-26,1.12-7.76,4.65-13.33,10-15.71C474.22,245.74,489.88,256.3,497.94,274.3Zm-31.4,35.91c.33.32.65.66,1,1C467.19,310.85,466.85,310.54,466.54,310.21Zm-105-122.12a8,8,0,1,0-.83,14.72,7.6,7.6,0,0,0,.89-.37,8,8,0,0,0-.06-14.35Zm-9.06,9.14a5.92,5.92,0,0,1,3-7.27,0,0,0,0,0,0,0,4.22,4.22,0,0,0-1.6,2.48,6.59,6.59,0,0,1,2.62-.88,8.07,8.07,0,0,1,2.15,0,8.23,8.23,0,0,1,2.07.58,6.6,6.6,0,0,1,2.27,1.58,4,4,0,0,0-.57-2.47,5.79,5.79,0,0,1,1.23,2.05h0a5.87,5.87,0,0,1-.25,4.52,6.48,6.48,0,0,1-.87,1.29,4.42,4.42,0,0,0,.2-4.07,5.22,5.22,0,0,1-1.79,2.95,4.48,4.48,0,0,1-5.28.55,5.07,5.07,0,0,1-2.35-2.56,4.35,4.35,0,0,0,.79,3.64A6,6,0,0,1,352.45,197.23ZM300.84,141.9Q282.52,115.77,265.16,89s-7.85-12.15-15.33-24.51l-5.44-9.11c-1.71-2.92-3.29-5.66-4.66-8s-2.42-4.33-3.2-5.71c-.37-.7-.67-1.25-.86-1.62a2.31,2.31,0,0,1-.27-.59,3.14,3.14,0,0,1,.4.55l1,1.63c.86,1.41,2.1,3.42,3.59,5.83s3.24,5.23,5.1,8.24l5.93,9.4c4,6.38,8.17,12.73,11.29,17.47S268,90.45,268,90.45q17.26,26,35.57,51.24,9.1,12.65,18.38,25.19l2.32,3.13a22.64,22.64,0,0,0,2.45,2.74c.57.56,1.22,1,1.85,1.55Q306.24,144,285.37,112.74s-5.11-7.67-10.09-15.44c-2.5-3.87-5-7.77-6.79-10.71L266.3,83c-.25-.44-.45-.78-.59-1a1.14,1.14,0,0,1-.18-.37,2,2,0,0,1,.27.34l.7,1L269,86.62c2,3,4.71,7,7.4,11l10.87,16q22.27,32.49,46.15,63.81c.68.33,1.37.64,2.07.92l-25.08-34.91s-12.23-17.09-12-17.23,13.46,17.42,13.46,17.42l27,35.79c.29.07.57.16.85.22s.43.07.64.11l-15.6-22.12s-7.89-11.24-7.7-11.39,8.91,11.31,8.91,11.31l17.07,22.51c.72,0,1.44,0,2.16,0l-3.8-5.73s-2.44-3.75-2.24-3.9,3.2,3.46,3.2,3.46l4.92,5.95a37.54,37.54,0,0,0,3.77-.71c1.21-.27,2.25-.49,3.12-.63,1.72-.28,2.72-.18,2.87.17s-.49,1-2,1.78a24.71,24.71,0,0,1-3,1.33,20.17,20.17,0,0,1-4.68,1.17c-11.51,1.44-22.48-5.82-27.86-15.06Q310,155,300.84,141.9ZM482.72,243.31c11.11,6.8,20.38,16.2,25.72,27.76A50.37,50.37,0,0,1,513,289.46a43.17,43.17,0,0,1-3.11,18.83,49.59,49.59,0,0,0,1.13-18.79A59.53,59.53,0,0,0,506,272C500.89,261.07,492.8,251.52,482.72,243.31Zm21,29.17A67.2,67.2,0,0,0,487,249.59a54.4,54.4,0,0,1,22.81,50.62A67.28,67.28,0,0,0,503.76,272.48ZM473.47,320a51.59,51.59,0,0,1-26.39-43.67A67.55,67.55,0,0,0,473.47,320Zm18.67,27.12a101.12,101.12,0,0,0-20-22.13A40.23,40.23,0,0,1,492.14,347.13Zm5.83-5.62a24.89,24.89,0,0,0,5.92,11.3,17.59,17.59,0,0,1-5.41-24A25,25,0,0,0,498,341.51Zm-51.16-89.15a12.2,12.2,0,0,0-1.18-4.87,16.27,16.27,0,0,0-2.83-4c-2.23-2.41-5.06-4.12-7.74-6-5.44-3.64-11-7-16.61-10.12s-11.45-6-17.43-8.6-12.18-5-18.64-7.16a148.2,148.2,0,0,1,37,14.29,151,151,0,0,1,16.51,10.58c1.32,1,2.62,2,3.92,3a25,25,0,0,1,3.59,3.54,16.16,16.16,0,0,1,2.6,4.36A11.92,11.92,0,0,1,446.81,252.36Zm-23.36-32.11A19.32,19.32,0,0,1,419,208a40.66,40.66,0,0,0,6.53,10.6,33.87,33.87,0,0,0,9.55,7.76A17.58,17.58,0,0,1,423.45,220.25Zm-47.57-10.92a103.7,103.7,0,0,1-14.38,2q-3.57.23-7.13.21c-1.19,0-2.37,0-3.54-.08l-1.77-.09-2.33-.16-3-3.82-2.63-3.4c-1.74-2.29-3.45-4.59-5.16-6.93-3.39-4.69-6.73-9.5-10.05-14.53,4.07,4.43,8,8.83,11.7,13.25q2.79,3.31,5.51,6.64l2.69,3.35,2.29,2.93,1.18.11,1.74.13,3.5.24q3.5.19,7,.3C366.22,209.58,371,209.54,375.88,209.33Z"/><path class="cls-2" d="M3.16,219.44V165.17H26.7a28.4,28.4,0,0,1,10.42,1.68,13.61,13.61,0,0,1,6.37,4.71,12.12,12.12,0,0,1,2.15,7.16,11.43,11.43,0,0,1-1.32,5.47,11.69,11.69,0,0,1-3.65,4.14,14.07,14.07,0,0,1-5.52,2.27v.59a13.36,13.36,0,0,1,6.35,1.73,12.25,12.25,0,0,1,4.56,4.48,13,13,0,0,1,1.69,6.69,14.09,14.09,0,0,1-2.3,7.92,15.38,15.38,0,0,1-6.55,5.46,23.84,23.84,0,0,1-10.17,2H3.16ZM17.87,187.1h6a9,9,0,0,0,3.41-.6,5.28,5.28,0,0,0,2.31-1.75,4.67,4.67,0,0,0,.84-2.83,4.49,4.49,0,0,0-1.8-3.82,7.42,7.42,0,0,0-4.53-1.35H17.87Zm0,20.62h6.92a9.15,9.15,0,0,0,5.55-1.42,4.83,4.83,0,0,0,1.88-4.12,5.85,5.85,0,0,0-.87-3.26,5.51,5.51,0,0,0-2.49-2,9.81,9.81,0,0,0-3.85-.69H17.87Z"/><path class="cls-2" d="M65.3,219.44H49.42l17.92-54.27H87.45l17.92,54.27H89.48L77.61,180.11h-.44ZM62.38,198H92.25v11H62.38Z"/><path class="cls-2" d="M108.79,219.44V165.17h23.38a23.86,23.86,0,0,1,10.59,2.21,16.57,16.57,0,0,1,7.06,6.33,18.57,18.57,0,0,1,2.53,9.9,17.71,17.71,0,0,1-2.59,9.83,15.91,15.91,0,0,1-7.24,6,26.91,26.91,0,0,1-10.86,2.05h-14V190.09h11a13.44,13.44,0,0,0,4.48-.66,5.61,5.61,0,0,0,2.84-2.08,6.5,6.5,0,0,0,1-3.75,6.68,6.68,0,0,0-1-3.79,5.78,5.78,0,0,0-2.84-2.15,13.18,13.18,0,0,0-4.48-.69H123.5v42.47Zm29.35,0-13.26-24.92h15.66l13.62,24.92Z"/><path class="cls-2" d="M156.87,219.44V165.17H180.4a28.36,28.36,0,0,1,10.42,1.68,13.61,13.61,0,0,1,6.37,4.71,12.12,12.12,0,0,1,2.15,7.16,11.54,11.54,0,0,1-1.31,5.47,11.71,11.71,0,0,1-3.66,4.14,14.07,14.07,0,0,1-5.52,2.27v.59a13.4,13.4,0,0,1,6.36,1.73,12.3,12.3,0,0,1,4.55,4.48,12.89,12.89,0,0,1,1.69,6.69,14.16,14.16,0,0,1-2.29,7.92,15.47,15.47,0,0,1-6.56,5.46,23.81,23.81,0,0,1-10.17,2H156.87Zm14.71-32.34h6a9,9,0,0,0,3.4-.6,5.36,5.36,0,0,0,2.32-1.75,4.74,4.74,0,0,0,.83-2.83,4.49,4.49,0,0,0-1.8-3.82,7.4,7.4,0,0,0-4.53-1.35h-6.26V187.1Zm0,20.62h6.91a9.21,9.21,0,0,0,5.56-1.42,4.86,4.86,0,0,0,1.88-4.12,5.85,5.85,0,0,0-.88-3.26,5.46,5.46,0,0,0-2.49-2,9.76,9.76,0,0,0-3.84-.69h-7.14v11.51Z"/><path class="cls-2" d="M204.94,219.44V165.17h39.11v11.88h-24.4v9.18H242v11.58H219.65v9.76h24.26v11.88h-39Z"/><path class="cls-2" d="M249.59,219.44V165.17H273a23.78,23.78,0,0,1,10.58,2.21,16.59,16.59,0,0,1,7.07,6.33,18.66,18.66,0,0,1,2.53,9.9,17.79,17.79,0,0,1-2.59,9.83,15.93,15.93,0,0,1-7.25,6,26.84,26.84,0,0,1-10.86,2.05h-14V190.09h11a13.33,13.33,0,0,0,4.47-.66,5.57,5.57,0,0,0,2.84-2.08,6.5,6.5,0,0,0,1-3.75,6.68,6.68,0,0,0-1-3.79,5.74,5.74,0,0,0-2.84-2.15,13.08,13.08,0,0,0-4.47-.69H264.3v42.47Zm29.36,0-13.26-24.92h15.66L295,219.44Z"/><path class="cls-2" d="M477.24,220.1A33.28,33.28,0,0,1,464.92,218a17.19,17.19,0,0,1-8.19-6.46,20,20,0,0,1-2.94-11.18h14a8.34,8.34,0,0,0,1.25,4.18,6.86,6.86,0,0,0,3.13,2.59A12.14,12.14,0,0,0,477,208a11.7,11.7,0,0,0,4-.59,5.33,5.33,0,0,0,2.42-1.62,3.78,3.78,0,0,0,.82-2.38,3.32,3.32,0,0,0-.78-2.17,6.81,6.81,0,0,0-2.57-1.7,26.17,26.17,0,0,0-4.81-1.38L470.62,197a24.24,24.24,0,0,1-11.31-5.22q-4.12-3.69-4.13-10.07a15,15,0,0,1,2.8-9.05,18.44,18.44,0,0,1,7.74-6,28.19,28.19,0,0,1,11.39-2.17,27,27,0,0,1,11.38,2.21,17.08,17.08,0,0,1,7.39,6.19,16.85,16.85,0,0,1,2.64,9.31H484.38a5.63,5.63,0,0,0-1.94-4.14,8.21,8.21,0,0,0-5.33-1.48,11.11,11.11,0,0,0-3.72.53,4.49,4.49,0,0,0-2.15,1.48,3.54,3.54,0,0,0-.69,2.15,3.58,3.58,0,0,0,.75,2.24,5.84,5.84,0,0,0,2.36,1.67,21.33,21.33,0,0,0,4.18,1.25l4.44.95a33.71,33.71,0,0,1,7.71,2.51,18.68,18.68,0,0,1,5.28,3.66,13.14,13.14,0,0,1,3,4.71,16.37,16.37,0,0,1,1,5.73,15.38,15.38,0,0,1-2.64,9.08,16.1,16.1,0,0,1-7.56,5.66A32.42,32.42,0,0,1,477.24,220.1Z"/><path class="cls-2" d="M503.1,219.44V165.17h14.71v21.2h19.53v-21.2h14.71v54.27H537.34v-21.2H517.81v21.2Z"/><path class="cls-2" d="M583.45,220.17a28,28,0,0,1-13.39-3.2,23.42,23.42,0,0,1-9.48-9.42c-2.34-4.14-3.49-9.21-3.49-15.21s1.16-11.14,3.49-15.29a23.36,23.36,0,0,1,9.48-9.42,29.66,29.66,0,0,1,26.76,0,23.42,23.42,0,0,1,9.48,9.42q3.53,6.22,3.52,15.29c0,6-1.17,11.1-3.52,15.25a23.49,23.49,0,0,1-9.48,9.4A28,28,0,0,1,583.45,220.17Zm0-12.82a9.87,9.87,0,0,0,9.95-6.81,22.92,22.92,0,0,0,1.28-8.2,23.44,23.44,0,0,0-1.28-8.25,10.41,10.41,0,0,0-3.77-5.09,10.64,10.64,0,0,0-6.18-1.74,9.87,9.87,0,0,0-9.92,6.83,23,23,0,0,0-1.3,8.25,22.68,22.68,0,0,0,1.3,8.2,9.89,9.89,0,0,0,9.92,6.81Z"/><path class="cls-2" d="M614.84,219.44V165.17h23.39a22.47,22.47,0,0,1,10.59,2.39,17.26,17.26,0,0,1,7.06,6.72,19.78,19.78,0,0,1,2.53,10.13,19,19,0,0,1-2.59,10.06,17.1,17.1,0,0,1-7.25,6.56,24.11,24.11,0,0,1-10.85,2.32h-14V191.91h11a9.86,9.86,0,0,0,4.49-.94,6.76,6.76,0,0,0,2.84-2.6,8.65,8.65,0,0,0,0-8,6.37,6.37,0,0,0-2.84-2.53,10.39,10.39,0,0,0-4.49-.88h-5.18v42.47H614.84Z"/></g></g></svg>