<svg id="wave" style="transform:rotate(180deg); transition: 0.3s" viewBox="0 0 1440 100" version="1.1" xmlns="http://www.w3.org/2000/svg"><defs><linearGradient id="sw-gradient-0" x1="0" x2="0" y1="1" y2="0"><stop stop-color="rgba(33, 22, 30, 1)" offset="0%"></stop><stop stop-color="rgba(33, 22, 30, 1)" offset="100%"></stop></linearGradient></defs><path style="transform:translate(0, 0px); opacity:1" fill="url(#sw-gradient-0)" d="M0,20L80,28.3C160,37,320,53,480,50C640,47,800,23,960,26.7C1120,30,1280,60,1440,60C1600,60,1760,30,1920,18.3C2080,7,2240,13,2400,21.7C2560,30,2720,40,2880,48.3C3040,57,3200,63,3360,60C3520,57,3680,43,3840,36.7C4000,30,4160,30,4320,33.3C4480,37,4640,43,4800,46.7C4960,50,5120,50,5280,55C5440,60,5600,70,5760,66.7C5920,63,6080,47,6240,41.7C6400,37,6560,43,6720,40C6880,37,7040,23,7200,25C7360,27,7520,43,7680,53.3C7840,63,8000,67,8160,68.3C8320,70,8480,70,8640,73.3C8800,77,8960,83,9120,71.7C9280,60,9440,30,9600,23.3C9760,17,9920,33,10080,43.3C10240,53,10400,57,10560,48.3C10720,40,10880,20,11040,21.7C11200,23,11360,47,11440,58.3L11520,70L11520,100L11440,100C11360,100,11200,100,11040,100C10880,100,10720,100,10560,100C10400,100,10240,100,10080,100C9920,100,9760,100,9600,100C9440,100,9280,100,9120,100C8960,100,8800,100,8640,100C8480,100,8320,100,8160,100C8000,100,7840,100,7680,100C7520,100,7360,100,7200,100C7040,100,6880,100,6720,100C6560,100,6400,100,6240,100C6080,100,5920,100,5760,100C5600,100,5440,100,5280,100C5120,100,4960,100,4800,100C4640,100,4480,100,4320,100C4160,100,4000,100,3840,100C3680,100,3520,100,3360,100C3200,100,3040,100,2880,100C2720,100,2560,100,2400,100C2240,100,2080,100,1920,100C1760,100,1600,100,1440,100C1280,100,1120,100,960,100C800,100,640,100,480,100C320,100,160,100,80,100L0,100Z"></path></svg>